<!-- Generator: Adobe Illustrator 18.1.1, SVG Export Plug-In  -->
<svg version="1.1"
	 xmlns="http://www.w3.org/2000/svg" xmlns:xlink="http://www.w3.org/1999/xlink" xmlns:a="http://ns.adobe.com/AdobeSVGViewerExtensions/3.0/"
	 x="0px" y="0px" width="165.2px" height="28.9px" viewBox="0 0 165.2 28.9"
	 overflow="scroll" enable-background="new 0 0 165.2 28.9" xml:space="preserve">
<defs>
</defs>
<path fill="#FFFFFF" d="M21.8,13.2c-0.1-1-0.3-2.1-0.9-3L16.2,2c-0.3-0.6-0.6-1.3-0.8-2l-0.2,0.3c-1.2,2.1-1.2,4.5,0,6.6l3.8,6.6
	c1.2,2.1,1.2,4.5,0,6.6l-0.2,0.3c-0.2-0.7-0.4-1.4-0.8-2l-3.5-6.1l-2.2-3.8c-0.3-0.6-0.6-1.3-0.8-2l-0.3,0.3c-1.2,2.1-1.2,4.5,0,6.6
	l0,0l3.8,6.6c1.2,2.1,1.2,4.5,0,6.6L15,27c-0.2-0.7-0.4-1.4-0.8-2l-4.8-8.3c-0.6-1.1-0.9-2.4-0.9-3.6C3.5,14.5,0,17.3,0,20.6
	c0,4.5,6.8,8.3,15.2,8.3s15.2-3.7,15.2-8.3C30.4,17.4,26.9,14.5,21.8,13.2z M36.2,27.3c0.1-1.2,0.3-2,0.5-2.9
	c1.6,0.8,3.7,1.1,5.2,1.1c2.6,0,4.1-0.9,4.1-2.6c0-1.6-1.1-2.4-3.8-3.6l-1.5-0.6c-2.6-1.2-4.5-2.6-4.5-5.7c0-3.2,2.2-5.4,6.9-5.4
	c1.9,0,3.6,0.3,5.2,0.9c-0.1,1.1-0.3,2.1-0.6,2.8c-1.5-0.6-3.3-0.9-4.7-0.9c-2.5,0-3.6,0.9-3.6,2.5c0,1.5,1.1,2.3,3.1,3.2l1.5,0.7
	c3.6,1.5,5.1,3.2,5.1,6c0,3.2-2.5,5.6-7.4,5.6C39.7,28.4,37.8,28,36.2,27.3z M64.7,13.7v14.3h-2.9l-0.2-1.7c-0.8,1.3-2.1,2.1-4,2.1
	c-3.8,0-6.3-2.7-6.3-7.5c0-5,2.6-7.9,7.9-7.9C61.4,12.9,63.1,13.1,64.7,13.7z M61.5,24.7v-9c-0.7-0.1-1.4-0.2-2.2-0.2
	c-3.2,0-4.8,2-4.8,5.2c0,2.9,1.2,5,3.9,5C59.7,25.7,60.8,25.3,61.5,24.7z M80.8,18.4v9.6h-3.1v-9.1c0-2.2-0.8-3.3-3.8-3.3
	c-0.8,0-1.6,0.1-2.5,0.3v12.1h-3.2V13.7c2-0.5,4.2-0.8,5.7-0.8C79.1,12.9,80.8,14.9,80.8,18.4z M89.5,25.6c0.9,0,1.8-0.2,2.5-0.4
	c-0.1,0.9-0.2,1.8-0.3,2.6c-0.9,0.3-1.8,0.4-2.6,0.4c-3.1,0-5-1.4-5-4.9v-15c0.9-0.3,2.1-0.4,3.2-0.4v5.4h5
	c-0.1,0.9-0.2,1.9-0.3,2.6h-4.7v7C87.1,24.9,88,25.6,89.5,25.6z M106.4,13.7v14.3h-2.9l-0.2-1.7c-0.8,1.3-2.1,2.1-4,2.1
	c-3.8,0-6.3-2.7-6.3-7.5c0-5,2.6-7.9,7.9-7.9C103.1,12.9,104.7,13.1,106.4,13.7z M103.2,24.7v-9c-0.7-0.1-1.4-0.2-2.2-0.2
	c-3.2,0-4.8,2-4.8,5.2c0,2.9,1.2,5,3.9,5C101.4,25.7,102.4,25.3,103.2,24.7z M122.5,18.4v9.6h-3.2v-9.1c0-2.2-0.8-3.3-3.8-3.3
	c-0.8,0-1.6,0.1-2.5,0.3v12.1h-3.2V13.7c2-0.5,4.2-0.8,5.7-0.8C120.8,12.9,122.5,14.9,122.5,18.4z M138.4,7.9v20h-2.9l-0.2-1.8
	c-0.8,1.4-2.1,2.1-4.1,2.1c-3.8,0-6.3-2.7-6.3-7.5c0-5,2.6-7.9,7.9-7.9c0.9,0,1.6,0.1,2.3,0.3V8.5C136.2,8,137.3,7.9,138.4,7.9z
	 M135.3,24.6v-8.8c-0.9-0.2-1.7-0.3-2.5-0.3c-3.1,0-4.6,2-4.6,5.2c0,2.9,1.2,5,3.9,5C133.4,25.7,134.4,25.3,135.3,24.6z M154.2,21.8
	h-10c0.4,2.6,1.9,3.8,4.7,3.8c1.7,0,3.4-0.3,5-1.1c-0.1,0.9-0.3,1.9-0.5,2.8c-1.5,0.7-2.9,0.9-4.6,0.9c-5.3,0-7.8-2.9-7.8-7.8
	c0-4.3,2-7.6,7-7.6c4.4,0,6.4,2.9,6.4,6.6C154.4,20.3,154.4,21,154.2,21.8z M144.1,19.2h7.1c0-2.3-1.3-3.7-3.4-3.7
	C145.5,15.5,144.4,16.8,144.1,19.2z M165.2,13c0,0.9-0.1,2.1-0.3,2.6c-0.8-0.1-1.5-0.1-2.4-0.1c-0.8,0-1.5,0.1-2.3,0.2v12.2h-3.2
	V13.7c1.4-0.4,3.6-0.8,5.4-0.8C163.4,12.9,164.5,12.9,165.2,13z"/>
</svg>
